<?xml version="1.0" encoding="UTF-8"?>
<!DOCTYPE svg PUBLIC "-//W3C//DTD SVG 1.1//EN" "http://www.w3.org/Graphics/SVG/1.1/DTD/svg11.dtd">
<svg xmlns="http://www.w3.org/2000/svg" version="1.1" width="280px" height="97px" style="shape-rendering:geometricPrecision; text-rendering:geometricPrecision; image-rendering:optimizeQuality; fill-rule:evenodd; clip-rule:evenodd" xmlns:xlink="http://www.w3.org/1999/xlink">
<g><path style="opacity:1" fill="#020202" d="M -0.5,-0.5 C 92.8333,-0.5 186.167,-0.5 279.5,-0.5C 279.5,31.8333 279.5,64.1667 279.5,96.5C 186.167,96.5 92.8333,96.5 -0.5,96.5C -0.5,64.1667 -0.5,31.8333 -0.5,-0.5 Z"/></g>
<g><path style="opacity:1" fill="#f7f7f7" d="M 112.5,4.5 C 113.833,4.5 115.167,4.5 116.5,4.5C 116.5,8.83333 116.5,13.1667 116.5,17.5C 121.833,17.5 127.167,17.5 132.5,17.5C 132.5,18.8333 132.5,20.1667 132.5,21.5C 127.167,21.5 121.833,21.5 116.5,21.5C 116.334,25.5138 116.501,29.5138 117,33.5C 126.319,26.3745 134.319,27.7078 141,37.5C 145.59,49.2042 145.423,60.8708 140.5,72.5C 134.852,79.9813 128.352,86.6479 121,92.5C 120.044,91.4214 119.211,90.2547 118.5,89C 132.408,78.2734 137.908,64.1068 135,46.5C 132.493,36.2465 126.493,33.2465 117,37.5C 116.333,47.8333 116.333,58.1667 117,68.5C 118.699,69.4061 120.533,69.7394 122.5,69.5C 122.5,70.8333 122.5,72.1667 122.5,73.5C 115.825,73.6663 109.158,73.4996 102.5,73C 102.043,72.586 101.709,72.086 101.5,71.5C 102.714,69.9309 104.381,69.0976 106.5,69C 107.191,67.9326 107.691,66.7659 108,65.5C 108.5,50.8371 108.667,36.1705 108.5,21.5C 106.167,21.5 103.833,21.5 101.5,21.5C 101.5,20.1667 101.5,18.8333 101.5,17.5C 103.833,17.5 106.167,17.5 108.5,17.5C 108.663,15.1432 108.497,12.8098 108,10.5C 106.391,9.85336 104.891,9.02003 103.5,8C 106.511,6.67271 109.511,5.50604 112.5,4.5 Z"/></g>
<g><path style="opacity:1" fill="#f0f0f0" d="M 80.5,28.5 C 84.9387,28.7544 89.272,29.5877 93.5,31C 94.9824,34.7499 95.8157,38.5832 96,42.5C 95.586,42.9574 95.086,43.2907 94.5,43.5C 89.1359,31.0288 81.6359,29.3621 72,38.5C 70.5387,41.6786 69.7054,45.0119 69.5,48.5C 76.1373,47.7243 82.8039,47.391 89.5,47.5C 89.7394,49.4672 89.4061,51.3005 88.5,53C 82.1749,53.1019 75.8416,52.9353 69.5,52.5C 69.2327,59.129 71.566,64.629 76.5,69C 80.9971,71.1209 85.3305,70.7875 89.5,68C 91.0025,65.4562 92.8358,63.2895 95,61.5C 95.772,61.6448 96.4387,61.9781 97,62.5C 98.1762,66.2601 97.0096,69.0934 93.5,71C 79.9336,77.4457 69.4336,74.2791 62,61.5C 57.316,44.1864 63.4826,33.1864 80.5,28.5 Z"/></g>
<g><path style="opacity:1" fill="#c8c8c8" d="M 183.5,31.5 C 172.448,30.8572 161.781,31.5238 151.5,33.5C 150.596,32.791 150.263,31.791 150.5,30.5C 161.679,30.1721 172.679,30.5054 183.5,31.5 Z"/></g>
<g><path style="opacity:1" fill="#f5f5f5" d="M 183.5,31.5 C 183.5,35.5 183.5,39.5 183.5,43.5C 182.325,43.719 181.325,43.3857 180.5,42.5C 179.593,39.9433 178.593,37.4433 177.5,35C 173.514,34.5012 169.514,34.3345 165.5,34.5C 165.333,45.505 165.5,56.505 166,67.5C 167.789,69.229 169.956,69.8957 172.5,69.5C 172.5,70.8333 172.5,72.1667 172.5,73.5C 165.245,73.8132 158.079,73.4799 151,72.5C 150.383,71.5509 150.549,70.7175 151.5,70C 153.676,69.8371 155.509,69.0037 157,67.5C 157.667,56.8333 157.667,46.1667 157,35.5C 155.556,33.8446 153.722,33.178 151.5,33.5C 161.781,31.5238 172.448,30.8572 183.5,31.5 Z"/></g>
<g><path style="opacity:1" fill="#f6f6f6" d="M 205.5,57.5 C 203.5,57.5 201.5,57.5 199.5,57.5C 199.5,62.8333 199.5,68.1667 199.5,73.5C 198.167,73.5 196.833,73.5 195.5,73.5C 195.655,65.8026 193.488,58.8026 189,52.5C 187.384,40.4417 192.717,34.1083 205,33.5C 213.178,33.7322 218.178,37.7322 220,45.5C 220.667,54.5 220.667,63.5 220,72.5C 218.667,73.8333 217.333,73.8333 216,72.5C 215.952,62.0683 215.286,51.7349 214,41.5C 207.927,36.2566 201.927,36.2566 196,41.5C 193.212,45.6695 192.879,50.0029 195,54.5C 194.995,47.1625 198.495,44.3292 205.5,46C 209.419,49.8273 209.419,53.6607 205.5,57.5 Z"/></g>
<g><path style="opacity:1" fill="#f0f0f0" d="M 20.5,45.5 C 26.0011,44.7787 30.8344,46.112 35,49.5C 39.83,44.2435 44.83,44.2435 50,49.5C 51.5228,57.1016 51.8561,64.7682 51,72.5C 49.6667,73.8333 48.3333,73.8333 47,72.5C 46.6667,65.5 46.3333,58.5 46,51.5C 43.3333,48.8333 40.6667,48.8333 38,51.5C 37.8149,58.7466 37.3149,65.9133 36.5,73C 34.8876,73.7203 33.3876,73.5536 32,72.5C 31.6667,65.8333 31.3333,59.1667 31,52.5C 28.0293,48.9083 24.696,48.5749 21,51.5C 19.7114,54.3508 19.2114,57.3508 19.5,60.5C 25.3645,58.9547 28.6978,61.1213 29.5,67C 28.0584,72.0572 24.7251,74.0572 19.5,73C 14.7981,68.0782 13.2981,62.2448 15,55.5C 16.0699,51.6891 17.9033,48.3557 20.5,45.5 Z"/></g>
<g><path style="opacity:1" fill="#f1f1f1" d="M 238.5,45.5 C 242.856,45.2557 246.856,46.2557 250.5,48.5C 254.518,45.3303 258.851,44.8303 263.5,47C 265.604,49.0424 266.771,51.5424 267,54.5C 267.667,60.5 267.667,66.5 267,72.5C 265.667,73.8333 264.333,73.8333 263,72.5C 262.667,65.5 262.333,58.5 262,51.5C 259.333,48.8333 256.667,48.8333 254,51.5C 253.815,58.7466 253.315,65.9133 252.5,73C 250.888,73.7203 249.388,73.5536 248,72.5C 247.667,65.8333 247.333,59.1667 247,52.5C 244.029,48.9083 240.696,48.5749 237,51.5C 235.711,54.3508 235.211,57.3508 235.5,60.5C 243.563,59.3963 246.397,62.7297 244,70.5C 237.891,75.339 233.557,74.0057 231,66.5C 230.174,61.4107 230.508,56.4107 232,51.5C 233.436,48.5581 235.603,46.5581 238.5,45.5 Z"/></g>
<g><path style="opacity:1" fill="#272727" d="M 199.5,48.5 C 203.945,47.8735 205.612,49.5402 204.5,53.5C 199.484,55.1246 197.817,53.4579 199.5,48.5 Z"/></g>
<g><path style="opacity:1" fill="#3f3f3f" d="M 205.5,57.5 C 204.081,58.4511 202.415,58.7845 200.5,58.5C 200.821,63.6946 200.487,68.6946 199.5,73.5C 199.5,68.1667 199.5,62.8333 199.5,57.5C 201.5,57.5 203.5,57.5 205.5,57.5 Z"/></g>
<g><path style="opacity:1" fill="#151515" d="M 19.5,64.5 C 21.9775,64.0508 23.9775,64.7175 25.5,66.5C 24.5009,69.1741 22.8342,69.8408 20.5,68.5C 19.5713,67.3112 19.238,65.9778 19.5,64.5 Z"/></g>
<g><path style="opacity:1" fill="#151515" d="M 235.5,64.5 C 238.045,64.1505 240.045,64.9838 241.5,67C 237.94,70.3919 235.94,69.5586 235.5,64.5 Z"/></g>
</svg>
